<?xml version="1.0" encoding="utf-8"?>
<!-- Generator: Adobe Illustrator 11 Build 196, SVG Export Plug-In  -->
<!DOCTYPE svg PUBLIC "-//W3C//DTD SVG 1.0//EN"    "http://www.w3.org/TR/2001/REC-SVG-20010904/DTD/svg10.dtd" [
	<!ENTITY ns_flows "http://ns.adobe.com/Flows/1.0/">
	<!ENTITY ns_svg "http://www.w3.org/2000/svg">
	<!ENTITY ns_xlink "http://www.w3.org/1999/xlink">
]>
<svg  xmlns="&ns_svg;" xmlns:xlink="&ns_xlink;" xmlns:a="http://ns.adobe.com/AdobeSVGViewerExtensions/3.0/"
	 width="494" height="788" viewBox="-1 -0.1 494 788" xml:space="preserve">
	<defs>
	</defs>
	<g>
		<path d="M379.1,1.1c0.3,0.6,1.4,1.1,2.1,1.1c1.6,0,5.9,4.2,5.1,5c-0.2,0.3-3.3-0.1-6.8-0.9c-7.9-1.9-19.4-0.2-18.8,2.6
			c0.2,1,1.5,1.9,2.7,2.1c1.4,0.2,3.6,1.6,5.1,3.2c1.4,1.5,3,2.7,3.6,2.7c0.5,0,3.8,2.3,7.3,5c3.5,2.7,8.5,6,11,7.2
			c5.6,2.8,10,8.4,11,14c0.5,2.4,1.2,4.3,1.8,4.3c0.6,0,1.7,2.1,2.4,4.7c0.8,2.7,2,5.6,2.9,6.7c0.8,0.9,1.5,3.2,1.5,4.7
			c0,1.7,0.5,3,1,3c0.6,0,1.5,1,1.8,2.4c0.5,1.2,1,2.1,1.2,1.8c0.3-0.2-0.3-3.7-1.4-7.7c-2.8-11-3.3-17.9-1.2-17.9
			c1,0,2.1,0.5,2.5,1.1c0.3,0.6,1.5,1.1,2.5,1.1c0.9,0,3.8,2,6.4,4.4c2.5,2.5,6.5,6.1,8.9,8c2.3,2,4.2,4.3,4.2,5.1
			c0,0.9,0.5,1.8,1.1,2.3c2.6,1.6-1.8-7.1-5.2-10.4c-2.1-2-3.8-4.4-3.8-5.2c0-0.9-1.2-3-2.8-4.8c-1.6-1.8-4.5-5.5-6.5-8.2
			c-2-2.7-4.7-6.1-6.1-7.7c-1.5-1.5-2.6-3.3-2.6-3.9c0-3.4-4.1-14.3-6.6-17.8c-5.8-7.9-7.8-8.9-16.8-9C381.5,0,378.7,0.5,379.1,1.1z
			"/>
		<path d="M414.7,1c-1.1,0.8,0.3,2.5,5.9,6.8c4.1,3.2,7.7,6.5,8,7.4c0.3,0.9,1.4,1.7,2.4,1.7c1,0,3.9,2,6.4,4.5
			c2.6,2.5,5.1,4.5,5.5,4.5c0.5,0,3.3,2.5,6.2,5.6c2.9,3,5.7,5.6,6.3,5.6c1.5,0-2.6-5.9-6-8.7c-1.7-1.5-3.3-3.7-3.7-5.1
			c-0.3-1.5-2.4-3.8-4.6-5.3c-2.1-1.5-3.9-3.4-3.9-4.2c0-2.5-7.9-9.5-13.2-11.8C418.3-0.2,417-0.5,414.7,1z"/>
		<path d="M339.7,6.1c-1.9,0.8-4.1,2.3-5,3.3c-0.8,1.1-2.1,1.9-2.8,1.9s-2.6,1.4-4.2,3c-1.6,1.8-4.7,4.8-7,7
			c-4.1,3.7-5.2,5.8-3.3,5.8c0.6,0,1.9-1,3-2.3c1.1-1.2,2.5-2.3,3-2.3c0.6,0,2.7-1.2,4.7-2.8c2-1.6,4.4-2.8,5.4-2.8
			c0.9,0,4.3-1.2,7.4-2.8c3.3-1.6,6.5-2.8,7.4-2.8c0.9,0,2-0.6,2.4-1.1c0.4-0.8,1.5-0.8,2.9,0c1.8,1,2.1,0.8,2.1-0.9
			c0-1.1-0.6-2.6-1.3-3.4C352.9,4.1,344,4.2,339.7,6.1z"/>
		<path d="M352.3,18.5c-1.7,2.7-3,5.5-3,6.4c0,0.9,1.6-1.1,3.4-4.5C356.7,13,356.6,11.8,352.3,18.5z"/>
		<path d="M346.5,28.4c-3.2,1.8-2,2.9,7.7,7.5c5.2,2.5,11.2,6.1,13.2,8.1l3.8,3.5l-6.2-0.7c-3.4-0.5-9.1-1.1-12.7-1.5
			c-3.8-0.3-6.9-1.2-7.2-2.1c-0.6-1.5-9.9-1.5-11.4,0c-0.3,0.3,0.6,2,2,3.5c2.1,2.4,2.5,3.4,1.6,4.8c-2,3.3-4.8,2.9-5.6-0.5
			c-1.4-5.2-2.9-6.1-5.3-3.2c-1.1,1.5-2.7,2.7-3.6,2.7c-0.9,0-1.2,0.8-0.9,2.1c0.3,1.2-0.2,3.4-1.2,4.8c-1,1.4-1.8,4.2-1.8,6.2
			c0,3.7-4.7,10.3-7,9.6c-0.7-0.2-0.9,0.6-0.5,1.7c0.7,1.6,0.6,1.7-0.6,0.7c-1.1-1.1-1.7-1-2.9,0.6c-1.4,1.8-1.5,1.8-0.8-0.1
			c0.7-1.7-0.5-2.5-3.2-2c-0.8,0.1-1-0.6-0.9-2.7c0.1-1.4-3.5-4.1-5.8-4.5c-1.4-0.2-2.9-1.2-3.7-2c-0.7-0.9-2.2-1.9-3.6-2.1
			c-1.9-0.5-2.3,0-2.4,3.5c-0.1,2.2,0.3,4.6,0.9,5.4c0.7,0.8,0.7,1.5,0.1,1.9c-1.2,0.7-5.3-4.7-4.3-5.7c0.7-0.8-1.6-3-3.8-3.9
			c-1.2-0.4-1.8,0-1.9,1.5c-0.1,1.1,0.5,2.1,1.4,2.1c0.8,0,2,1.6,2.7,3.5c1.1,3.4,1,3.7-5.6,9.9c-3.8,3.5-8.2,7.5-9.8,9.1
			c-2.6,2.5-7.7,4.8-17.7,7.9c-2.7,0.9-3.7,2-4.6,5.4c-0.9,3.3-0.8,4.6,0.3,5.7c1.6,1.5,6,0.7,6-1c0-0.6,1.6-1.7,3.4-2.7
			c3.2-1.5,3.4-1.5,3.4,0.3c0,1-0.6,2.5-1.3,3.3c-1,1-0.3,1.4,3.2,1.4c4.2,0,4.7-0.5,7.1-4.5c2.5-4.4,8-7.9,12.4-7.9
			c1.1,0,4.1-1,6.6-2.3c2.5-1.2,5.2-2.3,5.9-2.3c0.8,0,1.1-0.7,0.8-1.5c-0.3-0.9-2.6-1.2-7.9-0.9c-4.2,0.1-7.5,0-7.5-0.3
			c0-1.1,6.1-12.3,7.7-14c0.7-0.8,1.3-1,1.3-0.3c0,0.7,1.2,1.2,2.9,1.2c2.1,0,3.2,0.8,4.1,3.5c0.8,2.1,1.7,3.2,2.7,2.8
			c3.4-1.2,5.2,0.6,4.4,4.5c-0.5,2.5-0.2,3.8,0.6,3.8c0.7,0,1,0.5,0.7,1c-1,1.7,0.6,4.6,2.5,4.6c0.9,0,1.5,0.3,1,0.7
			c-0.3,0.5,0,2.1,0.9,3.8c0.9,1.7,1.2,3.5,0.8,3.9c-0.5,0.3,0,0.6,0.9,0.3c1.5-0.3,2.4,1.8,4.6,11.5c0.2,0.9-0.2,1.6-0.9,1.5
			c-2.5-0.6-1.6,1.4,2.6,5.4c2.9,2.7,3.7,3.2,2.8,1.4c-1.7-3.4-1.6-4.8,0.5-4.8c0.9,0,1.7,0.8,1.7,1.7c0,0.9,1,2.7,2.4,4.1
			c2.1,2.1,2.1,2.5,0.5,5.2c-2.9,4.4-1.5,5.9,5.9,6.2l6.5,0.3l-3.2,1.8c-2.9,1.6-3,1.8-1.1,3.4c1.1,1,4.3,2.4,7.1,3.2
			c5.9,1.7,9,4.2,9,7.1c0,1.1,0.9,3,2,4.2c4.3,4.8,8.1,10.8,8.1,12.7c0,0.9,0.9,2.4,2,3.4c2.7,2.7,3.8,4.1,8.5,11.4
			c2.4,3.6,5,6.8,5.9,7.1c0.9,0.5,1.7,1.7,1.7,2.8s0.5,2.1,0.9,2.1c0.6,0,1.5,0.9,2,2.1c1.1,2.4,7.1,9.7,12.6,15.6
			c1.9,2.1,3.6,4.3,3.6,4.7c0,0.5,1.8,2.7,3.9,5.1c2.1,2.4,3.9,4.7,3.9,5.3c0,0.5,0.7,1.4,1.6,1.8c1.9,1,5.2,6.9,5.2,9.1
			c0,1.1-0.9,1.4-3.4,0.8c-2.8-0.7-3.4-0.5-3.4,1.5c0,3.5,5.1,5.2,10.9,3.4c2.9-0.8,4.8-2,4.8-3.2c0-0.9,0.6-2.5,1.2-3.4
			c0.9-1.2,1-0.2,0.6,3.9c-0.7,6,1.2,10.7,4.3,10.7c0.9,0,2.4,1.2,3.4,2.8c1,1.6,1.4,2.8,0.7,2.8c-0.6,0-1.1-0.6-1.1-1.1
			c0-0.7-1-1.1-2.2-1.1c-1.4,0-3.5-0.8-5-1.7c-4.4-2.9-6.2-1.2-5.1,4.5c0.5,2.7,1.7,6.8,2.7,9c0.9,2.4,1.7,4.4,1.7,4.5
			c0,0.2-1.7,0.8-3.6,1.1c-2,0.5-4.4,1.4-5.2,2c-1,0.8-2,0.6-3.4-0.8c-1.1-1-2.7-1.8-3.4-1.8c-0.8,0-1.4-0.6-1.4-1.1
			c0-0.7-2.4-1.1-5.2-1.1h-5.2l0.8,3.6c1,4.5,3.4,9.4,6.9,14.1c1.5,1.9,2.7,3.8,2.7,4.1c0,0.2-3.8,0.4-8.5,0.3
			c-8-0.1-8.6,0.1-11.8,3.4l-3.5,3.5l3.2,3.5c1.7,2,3.6,3.6,4.3,3.6c0.6,0,2.4,1.6,3.8,3.4c3.4,4.4,5.3,4.4,2.7,0
			c-1-1.9-2.4-3.4-2.8-3.4c-0.5,0-0.9-0.7-0.9-1.6c0-1.2,0.8-1.5,3.7-0.7c1.9,0.6,7.7,1.6,12.6,2.1c7.8,0.9,9.4,1.5,11.6,4.3
			c5.2,6.3,5.2,7,0.6,6.5l-4.3-0.6l3.7,1.3c1.9,0.7,3.6,1.7,3.6,2.4c0,1.9-3.8,4.1-7.3,4.2c-3.9,0.1-7.1,2.1-8.9,5.9
			c-0.7,1.5-2.5,2.7-3.8,2.9c-1.4,0.2-2.5,0.8-2.5,1.4c0,0.6-1.7,1.6-3.8,2.3c-2.1,0.7-4.5,1.9-5.2,2.8c-0.7,0.8-3.9,2.9-7.1,4.6
			c-3.3,1.6-6.1,3.4-6.4,3.9c-0.3,0.5-2.4,1.7-4.5,2.6l-3.9,1.6l-1.2-6.3c-0.6-3.5-0.9-7-0.6-7.5c0.3-0.7,0.7-2.4,0.8-3.9
			c1-14.1,2.1-21.5,3.4-22.6c0.9-0.7,2.9-1,4.7-0.8c1.7,0.3,4.3,0.2,5.9-0.2c2.8-0.9,2.8-0.9-0.6-1.2c-1.8-0.1-4.5-0.3-6-0.5
			c-1.5,0-3-0.8-3.5-1.6c-1.6-2.5-6-0.9-9.5,3.5c-3.2,3.9-3.3,4.6-3.6,16.9c-0.1,7,0,16.7,0.5,21.6c0.8,9.4-0.1,11.6-5.4,14.7
			c-6.7,3.9-13.7,9.4-14.3,11c-0.3,1.1-1.4,2-2.3,2c-0.8,0-3.8,2.2-6.8,5.1c-2.8,2.8-5.7,5.1-6.6,5.1s-2.6,1.1-3.8,2.5l-2.2,2.4
			l-1.1-2.7c-0.9-2.4-1.1-2.5-1.8-0.7c-0.5,1-0.6,3.3-0.3,4.7c0.5,2,0.1,2.8-1.2,3c-1,0-2.2,0.2-2.9,0.3c-0.6,0.2-1.6,0.3-2.3,0.5
			c-0.6,0.1-0.5,0.6,0.5,1.1c1.7,1.1,1,1.9-10.1,11.4c-3.3,2.8-8.1,7-10.7,9.2c-2.6,2.4-5.1,4.3-5.6,4.3c-0.4,0-2.8,2-5.1,4.5
			c-2.4,2.5-4.7,4.5-5.4,4.5c-0.6,0-1.6,0.7-2,1.5c-0.5,0.8-3,3-5.6,5.1c-2.6,2-5.1,4.6-5.4,5.8c-0.3,1.2-1.5,2.5-2.6,2.8
			c-4.4,1.7-6.9,3.5-7.3,5.4c-0.8,2.7-4.4,2.6-7-0.2c-1.1-1.2-3-2.5-4.4-2.9c-1.2-0.3-3.8-1.8-5.8-3.2c-1.8-1.4-4.7-3.2-6.4-3.9
			c-1.8-0.9-3.2-2.3-3.2-3c0-0.9,1.4-1.8,3.2-2.3c1.7-0.3,4.5-1.1,6.3-1.7c1.8-0.6,4.5-1,5.9-1c1.5,0,2.7-0.6,2.7-1.1
			c0-0.7,0.9-1.1,2-1.1c2.7,0,16.5-4.8,17.4-6.2c1.6-2.1,0.9-2.9-1.5-1.7c-1.2,0.8-10,2-19.4,2.8c-9.5,0.9-18.8,1.9-20.8,2.4
			c-2.5,0.5-4.5,0.1-6.4-1.1c-1.5-1-3.5-1.8-4.5-1.8c-1,0-2-0.8-2.4-1.7c-0.5-0.9-1.1-1.7-1.7-1.7c-0.6,0-4.7-3.6-9.1-8
			c-4.5-4.3-10.3-8.8-12.7-9.9c-2.5-1.1-5.2-2.8-6.1-3.8c-0.8-1.1-2.2-1.9-3-1.9c-2.1,0-2-0.3,1.2-5.2c1.6-2.2,2.8-4.8,2.8-5.6
			c0-0.9,0.7-1.6,1.5-1.6c0.9,0,2.5-1,3.6-2.2c1.1-1.2,2.7-2.3,3.4-2.3c0.8,0,1.7-0.7,2-1.6c0.3-0.8,3-2.4,6-3.4c2.9-0.9,7-3,9-4.6
			c2.1-1.7,7.2-4.2,11.5-5.8c4.2-1.6,9.8-3.7,12.6-4.7l5.1-1.9l-4.4-0.3c-2.4-0.2-5.2,0-6.2,0.5c-2.6,1.2-16.7,5-23.1,6.1
			c-8.2,1.6-17.6,8.6-20.4,15.4c-0.9,2-2.4,4.1-3.4,4.4c-0.9,0.3-1.7,1.4-1.7,2c0,0.8-0.7,2.7-1.3,4.4c-1.2,2.6-2.1,3-6.1,3
			c-6.4,0-11.2,1.9-12.9,5.1c-1.3,2.6-2.1,2.8-9.1,2.8c-10.7,0-11.7,0.6-8.9,4.5c1.2,1.7,2.3,3.7,2.3,4.3c0,0.7,0.5,1.3,1.1,1.6
			c0.6,0.2,0.3,2.4-0.8,5.4c-1,2.8-2.3,7.3-2.9,10.1c-1.4,6.2-2.4,56.2-1,54.7c1.1-1.4,3.3-7.9,4.1-12.2c0.3-1.8,1.1-3.9,1.8-4.7
			c0.7-0.8,1.7-4.7,2.4-8.7c0.6-3.8,2-10.1,3.3-13.9c1.2-3.7,2.6-8.2,3.2-10c0.5-1.9,1.5-3.5,2-3.7c0.6-0.2,3.3,1.7,6,4.2l5,4.4
			l-3,1.1c-3.3,1.4-5.3,5.2-5.9,11.6c-0.3,4.3,3.8,18.3,6.7,22.8c0.9,1.3,1.9,4.2,2.4,6.4c1,5.5,4.4,12.4,7.6,15.1l2.5,2.3l-0.8-5.5
			c-0.3-3.2-1.1-5.9-1.6-6.2c-2.7-2.1-8.1-25.4-8.1-35.3c0-11.3,1-11.6,9.5-2.6c7.1,7.7,10.3,9,7.7,3.4c-1.2-2.7-1.1-2.8,2.1-2.8
			c1.9,0,5.9-0.8,8.9-1.8c3.5-1.1,7.7-1.6,11.5-1.2c7.2,0.7,20.4,4.4,23,6.5c1.1,0.9,2,1.4,2,1c0.1-0.8,16.5,4.8,16.5,5.6
			c0,0.5-1.5,1.8-3.3,3.2c-11.3,8.2-48.3,45.9-51.2,51.7c-0.7,1.6-2.1,2.6-3.8,2.6c-2.1,0-2.6,0.6-2.6,3.4c0,2.6-1.2,4.7-5.1,8.3
			c-2.8,2.8-5.1,5.7-5.1,6.5c0,0.9-2,3.3-4.5,5.3c-3,2.4-4.5,3-4.5,1.9c0-1.7,4.4-7.2,12.3-15c2.7-2.7,4.6-5.2,4.3-5.5
			c-0.7-0.8-6.4,2.8-6.4,4.1c0,1-6.4,8.4-10.6,12.3c-1.9,1.6-5.1,4.6-7.1,6.5c-2.1,2-4.2,3.7-4.6,3.7c-1.4,0.1-8.1,6.6-8.1,7.9
			c0,0.6-0.8,1.1-1.7,1.1c-1,0-3.4,0.8-5.3,1.8l-3.5,1.8l0.8-2.9c0.8-3.4,6-9.7,7.9-9.7c0.7,0,5.4-4.1,10.6-9
			c5.2-5,11.2-10.4,13.3-11.9c2.1-1.7,5.7-4.7,8-6.8c2.3-2.1,4.8-3.8,5.6-3.8c0.8,0,1.5-0.6,1.5-1.1c0-0.7,2.6-2.8,5.7-4.8
			c3.2-1.9,5.2-3.7,4.5-3.9c-1.4-0.5-5.5,1.5-13.1,6c-2.5,1.5-5.8,3.4-7.3,4.2c-1.6,0.9-6.4,3.8-10.7,6.7c-4.4,2.8-9.8,6.1-12.2,7.2
			c-2.3,1-4.2,2.7-4.2,3.5c0,0.9-1.1,2-2.6,2.6c-1.5,0.6-3.3,1.8-4.1,2.8c-1.7,2-5.7,9.8-5.7,10.9c0,0.5-0.6,2.3-1.2,4.1
			c-0.7,1.7-1.5,4.5-1.6,6.3c-0.5,4.4-2.6,6.4-6.9,6.4c-4.3,0-4.6-0.6-1.9-3.6c2.6-2.8,1.2-3.6-1.8-1c-2.6,2.3-5.7,2-9.7-0.7
			c-4.1-2.7-12.6-0.9-16.3,3.6c-0.8,0.9-2.1,1.7-2.9,1.7c-1.1,0-1.6,1.5-1.6,4.5c0,3.2,0.5,4.5,1.6,4.5c0.9,0,2-0.6,2.4-1.1
			c0.3-0.7,0.1-1.1-0.6-1.1c-0.7,0-0.9-0.6-0.6-1.1c0.5-0.7,1.4-0.8,2-0.3c0.8,0.5,2.4,0.8,3.6,0.9c1.4,0,2.1,0.7,1.9,1.6
			c-0.2,0.9,0.3,1.2,1.5,0.9c0.9-0.5,1.7-0.6,1.7-0.3c0,1.6-3,8.6-5,11.2c-1.7,2.4-2.3,4.7-2.1,9.8c0.1,3.7-0.2,6.8-0.6,6.8
			c-0.5,0-2.8-0.6-5.3-1.1c-9.5-2.1-11.2-2-23.7,1.2l-13,3.4l-3.3-2.5c-1.8-1.4-4.1-2.1-5.1-1.8c-2.7,1-3.4,7.8-1.4,14.6
			c1,3.4,1.8,7.9,1.8,9.9c0,3.5,5.2,18.9,6.9,20.2c1.4,1.1,3.3,5.5,3.3,7.8c0,2.7,3.9,10,6.9,12.8c1.1,1.1,2.1,2.9,2.1,4.1
			c0,1.1,1,3.4,2.2,5c1.2,1.6,2.3,3.3,2.3,3.9c0,0.6,1.1,1.9,2.4,3.2l2.5,2.1l-0.7-5c-0.3-2.7-1.1-5.3-1.7-5.6
			c-0.6-0.3-1.6-3.3-2.4-6.3c-0.7-3.2-1.6-6.9-1.9-8.5c-1.3-5.5-2.5-15.3-2.6-21.3c-0.1-3.4-0.7-7.8-1.5-9.9c-0.7-2-0.9-4.1-0.5-4.5
			c0.6-0.6,1.1-0.3,1.5,0.2c0.7,2,10.5,11.9,21.3,21.6l10.3,9.1l-0.6,9.1c-0.5,8.7-0.8,9.5-4.4,13.1c-2.4,2.4-4.5,3.6-5.6,3.2
			c-6-2.3-2.6,14.4,4.2,20.5c3.2,2.8,2.8,5.4-1,7.1c-4.1,1.8-5.1,6.3-4.1,17c0.8,8.3,4.6,22.6,6.1,22.6c0.6,0,1.2,1.4,1.6,3
			c0.7,3.4,4.1,11.5,6.9,16.1c0.9,1.6,2.4,4.6,3.2,6.8c0.9,2.1,2.3,5.2,2.9,6.8c2.4,4.8,0.5-5.3-2-10.6c-1.1-2.6-2.2-5.9-2.6-7.4
			c-0.3-1.6-1.6-5.6-2.8-9c-4.1-10.9-5.9-17.8-5.9-21.9c0-2.1-0.5-4.2-0.9-4.5c-0.6-0.3-1-3.3-1.2-6.4c-0.1-3.3-0.5-6.3-0.7-6.6
			c-0.3-0.5,0.2-1.7,1-2.8c2.4-3.4,7.9-2.6,12.2,1.6c2,2,5.7,4.5,8.2,5.6c2.6,1.1,6,3.3,7.7,4.8c1.7,1.6,5.7,3.7,8.9,4.8
			c3.2,1,7.9,3.6,10.5,5.7c2.6,2.1,5.7,3.8,6.9,3.8c1.5,0-0.9-2.9-8-9.9c-5.5-5.4-12.1-12.7-14.5-16.3c-2.4-3.5-4.7-6.4-5.3-6.4
			c-0.6,0-1-0.6-1-1.1c0-1.6-5.7-6.6-7.5-6.8c-0.8,0-2-1-2.8-2.2c-0.8-1.2-1.9-2.3-2.5-2.3c-1.2,0-7.4-6.8-7.4-8.2
			c0-0.6,0.9-0.7,2-0.2c3.8,1.5,12.3,2.2,24.5,2.1c19.6-0.1,53.5-1.8,53.5-2.6c0-0.5-6-2.3-13.2-3.9c-7.3-1.8-14.2-3.7-15.2-4.2
			c-1.1-0.6-3.2-1-4.6-1s-3.6-0.8-4.8-1.7c-1.1-0.9-4.3-1.7-6.9-1.7c-2.6,0-5-0.5-5.3-1c-0.3-0.5-0.9-3.8-1.4-7.3
			c-0.7-5.4-0.5-6.3,1.1-6.3c1.7,0,5.2-2.5,10.5-7.7c1.5-1.4,3.6-2.5,4.7-2.5c1.1,0,3.4-1.4,5.1-3c2.9-2.9,3-2.9,6.9-1.1
			c2.1,1,3.9,2.4,3.9,2.9c0,0.5,1.6,1.2,3.5,1.7c3.7,0.7,15.7,12,15.7,14.8c0,0.9,1.4,2.5,3.2,3.6c1.7,1.1,3.8,3,4.7,4.3
			c2.1,2.9,11.6,13.1,18,19.4c3.9,3.8,5.2,4.5,5.4,3c0.5-1.9-1.7-6.9-3.8-8.9c-1.6-1.6-6.7-8.7-7.6-10.7c-0.5-0.9-1.7-3-2.8-4.7
			c-1-1.6-3-4.7-4.4-7l-2.5-4.1h3.5c1.9,0,7.4,1.4,12.1,2.9c10.5,3.6,18,5.6,25.3,6.8l5.6,0.8l-3.5-3.4c-1.8-1.8-5.9-4.2-8.9-5.3
			c-3-1-6.5-2.5-7.8-3.2c-1.2-0.8-4.5-2.6-7.3-4.1c-2.8-1.5-5.5-3.2-6.1-3.7c-0.7-0.6-2-1-3-1c-1.1,0-4.6-1.8-8-3.9
			c-3.3-2.3-7.8-4.5-9.9-5.1c-2.1-0.7-5.2-2.4-6.6-3.9c-1.5-1.6-2.9-2.8-3.4-2.8c-0.3,0-1.3-1.1-2.2-2.5c-1.5-2.4-1.5-2.4,6.2-1.7
			c4.3,0.5,9.7,1,12.1,1.5c4.8,0.9,5.5-0.6,1-2.7c-3.6-1.8-16.7-5.3-23.6-6.4c-2.7-0.5-4.8-1.1-4.8-1.7c0-0.5-0.7-0.9-1.4-0.8
			c-5.7,0.2-8.8-0.5-8.8-2c0-0.9-1-2.3-2.3-3c-3.7-2.4-2.8-4.7,1.4-3.7c2,0.3,4.3,0.8,4.8,1c0.7,0.1,1.7,0.6,2.5,1
			c0.7,0.5,1.6,0.5,1.8,0c0.3-0.6,6.5-0.6,13.7-0.1c11.7,0.7,13.5,1,16.9,3.6c2,1.6,4.6,2.9,5.5,2.9c1,0,1.8,0.5,1.8,1.1
			c0,0.6,0.7,1.1,1.5,1.1c0.7,0,6.5,2.5,13,5.6c6.4,3,12.8,6,14.3,6.3c3.7,0.9,3.7-1.6,0-2.9c-3.2-1.2-9.9-5.7-10.5-7.1
			c-0.2-0.5-1-0.8-1.8-0.8c-0.7,0-2.1-0.9-3.2-2c-1.1-1-2.9-2.9-4.3-4.1c-1.2-1.2-2.1-2.4-1.9-2.5c0.1-0.2,7.3-0.6,15.8-0.8
			c9.1-0.3,16.1-1,16.8-1.7c1.5-1.5,0.9-1.7-8.7-3.4c-10.6-1.8-23.1-4.7-29.9-7c-3.4-1.1-8.3-2.6-10.9-3.3c-2.6-0.7-6.2-2.5-7.9-3.9
			c-1.7-1.4-5-3.5-7.1-4.6c-9.9-5.4-14.8-8.8-14.2-10.3c0.5-1.1-0.1-1.2-2.3-0.5c-4.2,1.6-5,1.4-5-1.1c0-1.7,1.7-3,6.5-5.2
			c10.3-4.5,16.2-7.6,20.3-10.3c2-1.5,4.8-2.6,6.3-2.6c1.5,0,4.3-1.6,6.3-3.4c2-1.9,4.3-3.4,5.2-3.4c0.9,0,1.6-0.5,1.6-1
			c0-0.6,2.1-1.4,4.8-1.7c6.4-1,9.8-3.3,3.6-2.5c-8.1,1-23.7,4.1-25.9,5.2c-4.1,1.8-9.6,2.5-9.6,1.2c0-0.7,2-3.4,4.5-5.9
			c2.5-2.6,4.5-5.1,4.5-5.5s3.4-4.2,7.4-8.2c4.6-4.7,7.2-8.1,7-9.5c-0.2-1.6,0.2-1.9,2.3-1.7c1.7,0.2,2.5-0.2,2.5-1.4
			c0-1,0.6-1.8,1.1-1.8c0.7,0,1.1-0.8,1.1-1.7c0-0.9,1.2-2.8,2.8-4.2c1.6-1.4,2.8-2.8,2.8-3.3c0-0.5,1.4-2.3,3-4.1
			c6.1-6.2,15-16.7,15-17.5c0-0.6,0.8-0.9,1.7-0.9c1,0,3.4-2.3,5.3-5.1c2-2.8,4.3-5.1,5-5.1c0.8,0,3-2,5.1-4.4c1.9-2.5,5-5,6.8-5.6
			c1.8-0.6,3.3-1.8,3.3-2.7c0-3.6,6.2-3.9,12.4-0.8c5.6,2.9,7,2.8,6.5-0.3c-0.2-1.8-1.6-2.9-5.1-3.9c-2.7-0.9-4.8-2.1-4.8-2.8
			c0.1-0.8,1.8-2.7,3.9-4.3c5.2-3.9,17.9-15.2,23.9-21.1c2.6-2.6,5.4-4.7,6.1-4.7c0.7,0,3.5-2.3,6.4-5c10.6-9.9,16.8-15.3,17.9-15.3
			c0.7,0,2.6-1.4,4.4-3c3.6-3.4,4.8-3.8,7-2.2c1.9,1.5,1.7-0.1-0.5-2.3c-1.2-1.2-1.4-2.1-0.6-2.9c0.9-0.9,1.7-0.6,2.9,1
			c1.6,2,1.6,2,1.7,0c0-2.8,4.3-9.7,6.1-9.7c0.8,0,3.8-2.2,6.8-5.1c3-2.8,6.2-5.1,7-5.1c0.8,0,2-1,2.7-2.3c0.7-1.2,1.9-2.3,2.8-2.3
			c0.9,0,1.7-0.7,1.7-1.6c0-0.9,2-2.4,4.4-3.4c2.5-0.9,4.8-2.5,5.4-3.4c1.4-2.5,3.2-0.8,5.4,5.5c1.1,3,2.5,6.1,2.9,6.8
			c0.5,0.6,1.1,3.4,1.6,6.2c1,6.5,3.5,11.3,5.8,11.3c1.5,0,1.7-0.7,1-3.2c-0.3-1.7-1.2-3.3-1.8-3.4c-0.6-0.2-1-1.6-1-3
			c0-1.4-0.7-4.3-1.6-6.3c-0.8-2.1-1.8-7.5-2.1-11.9l-0.7-8.2l4.7-3.2c6.8-4.6,26-16.1,33.1-19.8c4.3-2.3,4.8-2.3,4.8-0.1
			c0,0.9,0.3,1.7,0.9,1.7c0.5,0,1.3,1.2,2.1,2.8c0.7,1.6,0.8,2.8,0.2,2.8c-0.6,0-1,0.6-1,1.2c0,0.7,0.9,0.9,2,0.6
			c1.6-0.6,2.7,0.8,5.3,5.7c1.8,3.6,4.2,7.6,5.4,8.8c1.1,1.2,2.4,3.6,2.7,5.3c0.3,1.8,1,3.2,1.5,3.2s1.1,0.9,1.6,1.9
			c0.3,1.1,1,2.8,1.4,3.7c0.5,1-0.2,0.8-1.9-0.7c-1.5-1.3-4.3-3.3-6.2-4.2c-1.9-1-4.1-2.6-5-3.6c-0.8-1-4.3-3.2-7.7-4.7
			c-6-2.8-6.3-2.8-10-1c-3.6,1.7-3.8,2.1-3.2,5.4c0.5,1.9,1.8,5.3,2.9,7.4c1.2,2,1.8,3.5,1.2,3.2c-1.5-0.9-5.4,3.8-6.3,7.3
			c-0.7,3,3.7,17.1,6.1,19.5c0.6,0.6,1.1,2,1.1,3.2c0,1.1,0.8,2,1.7,2c1,0,2.3,1.3,2.9,3c0.6,1.6,2.5,4.5,4.2,6.5
			c5.7,6.6,8.3,10.1,9.5,12.6c0.7,1.5,2.1,2.8,3.4,3.2c1.1,0.5,2,1.2,2,1.8c0,0.6,2.8,3.8,6.2,7.2c3.4,3.3,6.2,6.5,6.2,7.1
			c0,0.6,1.6,1.7,3.5,2.5c1.9,0.8,4.2,2.6,5.1,4.1c0.9,1.3,3.3,3.2,5.3,3.9c2,0.8,5.2,3.2,7.1,5.2c2.9,3.2,10.6,6.4,10.6,4.5
			c0-1.7-3.9-8.7-4.7-8.7c-1.7,0-7.7-7.2-7.7-9.2c0-1-0.7-2.4-1.5-2.8c-2.4-1.5-8.7-9.8-8.7-11.4c0-0.8-2.2-4.3-5.1-7.8
			c-2.8-3.4-5.1-6.9-5.1-7.7s-1.8-3.4-3.9-5.5c-2.1-2.2-3.9-4.7-3.9-5.5c0-0.9-1.2-2.7-2.8-4.2c-1.6-1.5-2.8-3.2-2.8-3.8
			c0-0.7-1.4-2.8-2.9-4.6c-1.7-1.9-3.5-4.7-4.1-6.5c-0.7-1.7-1.8-3-2.7-3c-0.9,0-1.6-0.5-1.6-0.9s-2.1-3-4.6-5.7
			c-4.1-4.2-4.6-5.3-4.1-8.7c0.5-2.2,0.2-3.6-0.5-3.3c-0.6,0.5-1,0.1-1-0.4c0-0.7,0.2-1.2,0.6-1.2c1,0,5.4,2.7,10.6,6.5
			c2.7,2,7,3.9,9.4,4.3c2.4,0.5,4.3,1.1,4.3,1.6c0,0.6,2.1,2,4.8,3.4c2.6,1.2,5.5,2.8,6.4,3.3c7.5,3.9,7.9,4.1,7.9,2.4
			c0-0.7-0.4-1.1-1-1.1c-1.6,0-6.3-4.7-7.3-7.3c-0.6-1.2-1.1-4.4-1.4-7c-0.2-2.7-1.6-7.6-3.2-10.7c-1.6-3.3-3.2-8-3.5-10.5
			c-1.7-9.6-4.1-17-5.9-18.3c-1.7-1.4-1.7-1.6,0-3.5c2.1-2.4,2.6-4.7,0.6-2.7c-1.9,1.9-4.3,1.7-4.3-0.3c0-1.9,4.8-3.4,7-2.1
			c0.8,0.6,2.5,1.1,3.7,1.2c3.5,0.6,7.6,5.7,6.7,8.6c-0.7,2-0.6,2.3,0.9,1.1c1.3-1.1,2.2-1.1,4.6,0c1.7,0.7,3,1.9,3,2.5
			c0,1.2-2.6,5-5.9,8.6c-2.5,2.6-2.6,5.1-0.3,9.4c0.9,1.7,1.7,4.1,1.7,5.2c0,2.3,3.2,13.2,4.5,15.9c0.6,1.1,1.1,5.4,1.2,9.6
			c0.3,8.5,2.5,15,3.6,10.7c0.2-1.2,0.1-4.5-0.6-7.2c-1.4-6.4-0.8-17.9,1-18.5c0.7-0.2,3.7,3.2,6.8,7.4c2.9,4.4,6,8,6.8,8
			c0.7,0,1.6,1,2,2.1c0.3,1.2,2.7,4.3,5.1,6.8c2.5,2.6,4.5,5.2,4.5,5.7c0,0.7,0.6,1.1,1.2,1.1c1.6,0-1.3-9.5-4.6-14.7
			c-2.9-4.6-6.8-12.5-6.8-14c0-0.8-1.6-3.3-3.5-5.3c-3.9-4.2-5.5-6.9-5.5-9.4c0-1-1.1-3-2.5-4.7c-1.5-1.6-2.9-4.1-3.3-5.5
			c-0.9-2.9,0.5-6.1,1.7-4.1c1.1,1.8,4.1,1.5,4.1-0.5c0-0.9-2.1-3.8-4.7-6.4c-3.3-3.3-4.7-5.6-4.5-7.3c0.2-1.6-0.5-2.9-1.9-3.7
			c-2.7-1.4-6.2-7.4-5.2-9c1.2-2,5.3-1.2,5.9,1.1c0.7,2.7,2.6,1.8,2.6-1.2c0-2.1,0.6-2.3,13.3-1.7c19.8,0.8,22,1.2,25.6,4.5
			c1.7,1.6,3.6,2.9,4.1,2.9c0.6,0,1-12.4,1-27.4c0-25.2-0.2-27.6-2-29.3c-1.1-1.1-2.5-1.9-2.9-1.9c-1.2,0-10.8-8-10.8-9
			c0-0.5,2.1-0.8,4.8-0.7c7.1,0.1,11.2-1.2,10.7-3.6c-0.2-1.2-2-2.3-5.8-2.9c-4.7-0.8-5.7-0.7-8,1.5c-2.1,2-3.2,2.3-5.5,1.4
			c-1.7-0.7-3-1.6-3.2-2c-1-8.5-0.7-10.3,1.9-11.4c1.5-0.7,3.9-3.3,5.5-5.7c3-5,7.8-8,12.4-8c2,0,2.8-0.6,2.8-2.3
			c0-1.2-0.7-2.3-1.6-2.3c-2.9,0-3.4-2.6-0.9-4.6c2.4-1.9,3.4-5.5,1.6-5.5c-0.6,0-2.7,1.6-4.8,3.5c-3.3,2.9-4.4,3.4-7.8,2.7
			c-5.3-1-8.1-1.3-10.4-1.6c-1.4-0.1-2-1-2-2.9c0-2.3,0.9-3.2,4.5-4.6c2.5-1,5.6-3.4,7-5.4c1.4-1.9,5.2-6.2,8.4-9.5
			c4.1-4.1,6-6.9,6-8.8c0-2.5-0.3-2.7-2.5-2c-1.5,0.3-3,1.5-3.5,2.3c-0.5,0.9-1.8,1.6-2.9,1.6c-3.2,0-13.2,10.1-14.8,15
			c-1.7,5.5-2.9,4.8-3.3-1.9c0-1.6-0.8-3.5-1.6-4.3c-2.6-2.5-4.3-9.2-4.3-16.8c-0.1-12.4,2.1-36.3,3.9-42.1c2.1-6.9,2.4-11,0.5-10.5
			c-2.7,0.9-7.6,20.2-7.7,29.9c0,3.9-0.5,7.1-0.9,7.1c-0.5,0-1.8,3.7-2.9,8.3c-2.5,9.7-2,16,1.5,20.8c1.3,1.8,2.4,3.9,2.4,4.8
			c0,0.8,2,4.2,4.5,7.5c5.2,7,5.5,9.1,1.8,16.3c-3,6.1-2.7,9.2,1.1,10.1c2.4,0.7,2.7,1.4,2.7,5.6c0,2.8,0.3,5.8,0.7,6.8
			c2,5.4-6.5-1.8-9.8-8.1c-0.9-1.7-2-3.4-2.7-3.8c-0.6-0.5-1.1-1.5-1.1-2.3c0-0.8-1-1.9-2.3-2.5c-1.2-0.6-3.2-2.9-4.2-5.4
			c-1.9-4.3-1.9-4.4,0.7-5.4c2.7-1,4.4-5.5,2.8-8c-0.5-0.9-4.5-1.6-10.6-1.9c-9-0.5-9.8-0.7-10.8-3.3c-0.6-1.5-4.4-6-8.6-10
			c-4.3-4.2-7.5-7.9-7.4-8.5c0.2-0.6-0.5-1-1.5-1c-0.9,0-1.5-0.5-1-1c0.3-0.6-0.5-1.5-1.8-1.8c-1.2-0.5-2-1-1.7-1.4
			c0.3-0.3,0-1.2-0.8-2.1c-0.8-0.8-2-2.3-2.8-3.3c-0.8-0.9-1.9-1.5-2.4-1.1c-0.6,0.2-0.8-1-0.7-2.8c0.2-2.5-0.1-3.2-1-2.4
			c-1.5,1.2-5.1-0.3-3.8-1.7c0.5-0.5,0.3-1.6-0.2-2.7c-1-2-3.9-2.3-6.8-0.6c-1.5,0.8-1.5,0.7-0.2-0.8c1-1.2,1.1-2,0.2-2.6
			c-0.6-0.3-0.9-2.1-0.6-3.9c0.6-3-1.6-5.3-4.3-4.6c-0.6,0.1-0.7-0.3-0.2-1c0.3-0.6,0-1.5-1-1.8c-1-0.3-1.3-1.4-0.9-2.5
			c0.6-1.6,0.3-1.7-1.1-0.6c-1.7,1.5-3.2,0.9-3.2-1.2c0-0.7,0.6-0.5,1.2,0.5c1,1.5,1.1,1.5,0.7,0c-0.2-0.9-1-1.8-1.7-1.8
			c-0.8-0.1-2.5-0.2-3.8-0.5c-1.5-0.1-1.9-0.5-1.1-0.8c1.5-0.6,1.9-5,0.6-4.7c-1.9,0.3-3.7-0.1-3.6-1c0.1-0.5,0-1.1-0.1-1.7
			c-0.1-0.5-0.3-1.5-0.5-2.3c-0.1-0.7-0.9-1.2-1.7-1c-0.8,0.1-1.1-0.2-0.8-0.7c0.6-0.9-0.3-2.4-5-7.9c-0.7-0.7-2.2-1.4-3.4-1.4
			c-1.2,0-2.3-0.8-2.3-1.7c0-1.2,1.5-1.7,6-1.7c6.3,0,7.4-0.4,9.4-3.9c1-1.8,0.7-3.5-1.9-8.8c-2.4-5.1-3.4-9.1-4.1-17.8l-1-11.1h3.6
			c2,0,7.1,1.8,11.3,3.9c4.2,2.1,9.6,4.5,12.2,5.3c2.6,0.8,4.8,1.7,5.2,2c0.3,0.5,3.2,2.1,6.2,3.8l5.6,3.2l-4.8-4.3
			c-2.6-2.5-8.7-8.1-13.5-12.7c-4.7-4.5-11.3-9.5-14.5-10.9c-3.2-1.6-7.3-4.4-9.1-6.2c-1.9-1.9-5.1-3.8-7.1-4.3
			c-1.9-0.3-4.4-1.9-5.3-3.3l-1.7-2.6l13.4,0.8c7.3,0.5,15.7,0.9,18.5,1c2.8,0.2,6.7,0.7,8.5,1.1c3.3,0.9,3.4,0.9,1.3-1.3
			c-2.2-2.6-11.8-6-16.7-6c-1.8,0-3.3-0.5-3.3-1.1c0-1.2-4.7-5.8-13.3-12.8C354.7,28.4,349.7,26.6,346.5,28.4z M337,64.2
			c1.5,1.2,3.3,2.6,3.8,3c0.7,0.6,2.4,0.9,3.9,0.9c1.9,0,3.3,1,4.5,3.4c0.9,1.8,2.6,4.3,3.6,5.5c1.1,1.2,2.4,4.1,2.7,6.2
			c0.5,2.3,1.1,4.3,1.5,4.6c1.7,1.4,8,12.8,8.7,15.6c0.5,1.7,1.2,3.7,1.9,4.5c1.7,2.1,0.2,2.8-3.9,1.6c-6.4-2-17.8-2.6-17.9-1
			c0,0.7-0.6-0.2-1.2-2c-1.4-3.8-5.3-8.7-6.5-7.9c-0.5,0.2-0.8-0.1-0.8-0.9c0-1.9-3.7-7.5-5.1-7.5c-0.6,0-0.8-0.5-0.5-0.9
			c0.6-1,0-1.2-5.8-1.7c-2-0.1-4.3-1-5.1-1.8c-1.2-1.2-1.2-1.5,0-0.7c1,0.5,1.4,0.2,1.2-0.7c-0.6-2.5,1.2-7.9,2.9-9.7
			c0.9-0.9,1.7-2.6,1.7-3.7c0-3.7,2.5-7.8,5-8.2c1.2-0.2,2.4-0.6,2.5-0.7C334.3,62.1,335.5,63,337,64.2z M329.5,90.2
			c0.3,0.6,0.2,1.1-0.5,1.1c-0.6,0-1.5-0.6-1.8-1.1c-0.3-0.7-0.2-1.1,0.5-1.1C328.3,89,329.2,89.5,329.5,90.2z M332.6,95.6
			c-0.8,0.2-1.1,0.8-0.9,1.1c0.2,0.5-0.9,0.9-2.5,1c-3,0.1-3,0.1-0.5-1.2c1.4-0.8,2.1-1.7,1.7-2.3c-0.4-0.5,0.1-0.5,1.4,0
			C333,94.8,333.4,95.2,332.6,95.6z M353.8,112.1c0,1.8-1.9,2.1-5,1c-2.9-1.1-2-2.7,1.6-2.7C352.6,110.4,353.8,111,353.8,112.1z
			 M354.9,120.6c0,0.6-1.5,1.8-3.4,2.8c-1.8,1-3.4,2-3.4,2.4c0,0.3,0.7,0.2,1.5-0.2c0.7-0.5,0.9-0.3,0.5,0.1c-2,2.3-4.2,1.5-4.2-1.6
			c0-1.7,0.3-3.5,0.8-3.8C347.8,119,354.9,119.3,354.9,120.6z M342.5,130.7c0,1.1-0.7,2.6-1.5,3c-0.9,0.5-2.1,1.9-2.9,3.2
			c-1.1,1.9-1.2,1.7-0.6-1.7C338.7,129.1,342.5,125.7,342.5,130.7z M394.1,167.5c0,1.9-0.3,2.5-0.9,1.5c-0.6-0.7-0.7-2-0.3-2.9
			C393.8,163.9,394.1,164.2,394.1,167.5z M437.1,219.1c0,1.2-3.7,4.1-5.3,4.1c-1.6,0-1.6-0.3,0.2-2.3
			C433.9,218.9,437.1,217.7,437.1,219.1z M470.7,232.4c-0.7,2-3.2,2.4-3.2,0.5c0-1,0.8-1.8,1.8-1.8C470.4,231,471,231.6,470.7,232.4
			z M432,266.6c0.3,0.9,0.2,1.4-0.5,1c-0.7-0.3-1.1-1.1-1.1-1.8C430.4,264.3,431.2,264.6,432,266.6z M444.2,281.7
			c6,7.1,5.3,9.1-1.1,3.3c-3.4-3-6-6.5-6.8-9.2l-1.4-4.4l2.5,2.7C438.8,275.5,441.9,279,444.2,281.7z M425.4,295.4
			c4.2,2.5,5,4.4,1.9,4.4c-1.9,0-7.1-4.2-7.1-5.9C420.2,292.6,421.4,292.8,425.4,295.4z M432.6,302.6c0,1-0.7,1.3-1.7,1
			c-0.9-0.5-1.7-1.1-1.7-1.7c0-0.6,0.8-1,1.7-1C431.9,300.9,432.6,301.7,432.6,302.6z M448.3,305.3c1.7,1.2,5.2,2.9,7.8,3.7
			c2.8,0.9,4.5,2,4.3,2.8c-0.3,0.8,0.7,1.5,2.4,1.7c1.7,0.2,3.2,0.9,3.4,1.6c0.2,0.8-3.2,1.2-9.8,1.4c-9.1,0.1-10.1-0.1-10.1-1.9
			c0-1.1-0.8-3.8-1.7-6.1c-1.4-3.4-1.4-5.3,0.3-5.3C445,303.1,446.6,304.2,448.3,305.3z M439.8,315.1c0.8,2.1-0.1,3.8-2,3.8
			c-0.9,0-1.8-1.2-2-2.8c-0.5-2.1-0.1-2.8,1.4-2.8C438.3,313.3,439.5,314.1,439.8,315.1z M157,412.8c5,4.5,12.2,8.7,15.2,8.7
			c0.7,0,1.2,0.5,1.2,1c0,0.6,2.9,2.5,6.5,4.2c3.5,1.7,5.7,3.3,5,3.6c-0.8,0.2-2.3-0.2-3.2-1c-1-0.9-4.7-1.5-8.5-1.6
			c-5.3,0-7.1,0.5-9.1,2.5c-2.3,2.4-2.4,2.6-0.6,4.6c1,1.1,1.9,2.7,1.9,3.5c0,0.7,1.6,1.6,3.5,2c3.8,0.7,3.2,2.2-1.4,2.8
			c-2.9,0.3-6.7-1.8-6.7-3.7c0-0.6,0.9-1,2-1.1c1.1-0.1,0.9-0.5-0.9-0.9c-2.2-0.6-3.3-2.3-5.3-8c-1.2-4.1-3-8.1-3.9-9
			c-3.3-3.6-5.2-6.3-6-8.9c-0.8-2.6-0.7-2.6,3.3-1.9C152.5,410,155.5,411.5,157,412.8z M150.2,557.5c-3.2,2.9-6.3,4.8-7.9,4.8
			c-3.7,0-3.4-1.2,1.6-5.6c5.6-5.3,8.3-6.5,10-5.1C155.1,552.4,154.2,553.9,150.2,557.5z M130.6,583.2c-1.9,2.1-2.9,2.5-3.5,1.5
			c-1.1-1.7-0.2-2.7,2.9-3.5c1.2-0.3,2.5-0.6,2.7-0.7C133.1,580.5,132.1,581.6,130.6,583.2z M104.9,583.3c1,0.7,1.2,5.1,0.2,7.7
			c-1.7,4.3-9-0.1-10.3-6.2l-0.7-3.6l4.8,0.8C101.8,582.4,104.4,583,104.9,583.3z M120.2,590.2c4.1,0.7,4.5,2,1.8,5.8
			c-2.1,3-4.5,3.2-6.1,0.2c-0.7-1.1-2.9-2.5-5.1-2.9c-4.7-0.9-6.3-2.7-2.4-2.7c1.6,0,3.2-0.6,3.5-1.2c0.5-0.7,1.6-0.8,2.7-0.5
			C115.7,589.3,118.2,589.8,120.2,590.2z M133.3,597.1c4.2,2.5,5.1,4.7,1.9,4.7c-1.2,0-4.1,0.8-6.2,1.9c-3.3,1.5-4.3,1.6-5.7,0.3
			c-2.2-1.9-2.1-2.7,0.8-7.2c1.9-2.9,2.9-3.6,4.3-2.8C129.3,594.6,131.5,596,133.3,597.1z M109.7,610.2c0.3,0.9,0.1,1.7-0.5,1.7
			c-0.7,0-1.1-0.8-1.1-1.7c0-0.9,0.2-1.7,0.5-1.7C108.8,608.6,109.2,609.3,109.7,610.2z M114.3,615.3c0.3,0.6-0.3,1.1-1.6,1.1
			c-1.4,0-2.4-0.6-2.4-1.1c0-0.7,0.7-1.1,1.6-1.1C112.8,614.2,113.9,614.6,114.3,615.3z M83.6,621.5c6,0.8,6.3,1,7,4.4
			c0.3,1.9,1.5,6.1,2.5,9.4c1.8,5.5,1.8,6,0,8c-2.1,2.4-2.5,3.6-0.8,3.6c0.7,0,1.1-0.8,1.1-1.7c0-3.7,1.9-1.4,3.3,4.1
			c1.6,6.2,0.9,7.8-3.5,7.8c-1.6,0-2-0.9-2-3.6c0-1.9-0.3-3.2-0.7-2.8c-0.8,0.8-4.2-3.2-5.3-6.3c-0.3-1-1.2-1.9-1.9-1.9
			c-0.6,0-1.1-0.8-1.1-1.8c0-0.9-1.2-3.4-2.7-5.3c-1.5-2-3.7-5.8-5.1-8.3c-1.2-2.5-2.9-4.8-3.7-5.2c-2.6-1.1,1.5-2.9,4.2-1.9
			C76.2,620.3,80.1,621.1,83.6,621.5z M124.4,627.1c1.6,1.5,2.8,3.2,2.8,3.7c0,0.5,2,2.1,4.6,3.5c3.4,1.9,4.4,3.2,4.2,5
			c-0.3,1.9-1.6,2.6-8.5,3.7c-4.8,0.8-9.4,2.3-11.2,3.7c-1.7,1.4-3.2,2.3-3.4,2c-0.2-0.2-0.7-5.7-0.9-12.4l-0.6-12.1h5.1
			C120.5,624.3,122.4,625,124.4,627.1z M106.2,672.7c1.8,3,1.8,3.3-0.2,3.8c-2.9,0.7-13.5-0.5-14.3-1.6c-1-1.7,5.3-3.4,9.6-2.6
			c3.7,0.8,3.9,0.7,2.5-1c-0.8-1.1-1-1.9-0.5-1.9C103.8,669.4,105,670.9,106.2,672.7z M99.6,688.6c0.3,0.6,0.1,1.1-0.5,1.1
			c-0.7,0-1.2-0.6-1.2-1.1c0-0.7,0.2-1.1,0.4-1.1C98.7,687.4,99.3,687.9,99.6,688.6z"/>
		<path d="M333,69c0.3,1.5,1.3,4.1,2.1,6l1.5,3.4l-0.6-4.5c-0.7-6.1-1.1-7.3-2.6-7.3C332.7,66.5,332.5,67.5,333,69z"/>
		<path d="M341.4,81.7c0,1.6,0.5,2.8,1.1,2.8c0.6,0,1-1.2,0.9-2.8c-0.1-1.6-0.7-2.8-1.1-2.8C341.8,78.9,341.4,80.1,341.4,81.7z"/>
		<path d="M324.8,83.6c1.5,2.2,3,2.7,3,0.9c0-0.7-0.6-1.1-1.2-1.1c-0.6,0-0.9-0.5-0.6-0.9c0.3-0.6-0.1-1-0.9-1
			C323.9,81.5,323.8,81.9,324.8,83.6z"/>
		<path d="M336.8,82c0,1.7,4.3,10.4,5.1,10.4c0.7,0-2-6.6-3.8-9.8C337.4,81.4,336.8,81.1,336.8,82z"/>
		<path d="M342.6,94.7c0,0.9,0.7,2.7,1.6,3.8c1.2,1.7,1.7,1.8,1.7,0.6c0-0.9-0.8-2.7-1.7-3.9C342.9,93.5,342.6,93.4,342.6,94.7z"/>
		<path d="M307.5,41c-7.4,1.7-11.9,3.5-13,5.1c-0.3,0.7-2.5,1.2-4.6,1.2c-2.1,0-3.8,0.5-3.8,1c0,0.6-2.8,2.4-6.2,4.2
			c-3.4,1.8-6.2,3.6-6.2,3.9c0,0.5,1,1.9,2.3,3.4l2.3,2.7l-0.3-2.7c-0.2-2.3,1-3.3,8.8-7.2c8.6-4.4,15.4-6.2,26.1-7
			c2.7-0.2,5.1,0,5.4,0.7c1,1.6,3.9,1.2,3.9-0.6s-5.3-6.3-7.2-6.2C314.3,39.6,310.9,40.2,307.5,41z"/>
		<path d="M234,50.9c-1,1.5-3,4.1-4.6,5.9c-1.6,1.8-2.9,3.9-2.9,4.7c0,0.9-1.7,3.8-3.8,6.6c-3.7,4.8-4.8,8.6-5.6,18.6
			c-0.6,7.3,2.7,13.5,8.1,14.9c1.9,0.6,2.5,0.2,2.5-1.5c0-1.1-0.5-2.1-1-2.1c-1.1,0-2.4-2.6-3-6.2c-0.2-1.2-0.7-3.6-1.1-5.2
			c-0.8-3.6,5.5-23.8,9-28.6c2.5-3.4,5.5-9.6,4.7-9.6C235.9,48.5,234.9,49.6,234,50.9z"/>
		<path d="M264.7,60.3c-1.5,1.6-2,2.8-1.3,2.8c0.7,0,1.6-0.6,1.9-1.1c0.5-0.7,2.4-1.9,4.3-2.7c3.5-1.6,3.5-1.6,0.7-1.7
			C268.6,57.5,266.3,58.6,264.7,60.3z"/>
		<path d="M471.9,67.3c0.8,0.3,1.8,0.2,2.1-0.1c0.5-0.3-0.2-0.7-1.5-0.6C471.3,66.6,471,66.9,471.9,67.3z"/>
		<path d="M414.7,73.9c0,1.2,0.3,1.6,0.7,0.7c0.3-0.8,0.2-1.8-0.1-2.1C414.9,72,414.6,72.7,414.7,73.9z"/>
		<path d="M296.3,85.5c0,0.6,0.6,1.5,1.1,1.8c0.7,0.3,1.1,0.2,1.1-0.5c0-0.6-0.5-1.5-1.1-1.8C296.8,84.7,296.3,84.9,296.3,85.5z"/>
		<path d="M226.3,111.5c-4.1,4.6-5.9,9.6-5.2,13.9c1.1,6.9,2.9,12.7,4.1,13.1c0.7,0.2,1.2,1.7,1.2,3.3c0,1.6,2.3,6.6,5.1,11.4
			c2.8,4.6,5.1,9.4,5.1,10.5c0,2.4,6.6,10.3,6.8,7.9c0-0.8-1.5-4.5-3.4-8.2c-1.8-3.6-3.4-7.7-3.4-8.9c0-2.1-2.1-8-6.5-17.9
			c-1.1-2.5-1.7-7.2-1.7-13c0.1-8.8,0.1-9,3.8-12.1l3.7-3.2h-3.4C230.2,108.2,228.2,109.2,226.3,111.5z"/>
		<path d="M281.2,110.5c-1.1,0.7-4.2,1-6.8,0.7c-4.5-0.6-4.5-0.6-1,0.6c3.2,1,3.6,1.6,3,3.8c-0.6,2.1-0.2,2.7,1.5,2.7
			c2.7,0,7.1-4.5,7.1-7.1C285,109,284.2,108.9,281.2,110.5z"/>
		<path d="M296.3,111c0,0.2,2.3,2,5.1,3.9c6,4.1,6.5,3.6,1.5-1.1C299.5,110.9,296.3,109.4,296.3,111z"/>
		<path d="M291.7,116.6c4.7,2.1,5.9,2.1,3,0c-1.2-0.9-3.3-1.7-4.5-1.7C288.4,115.1,288.8,115.5,291.7,116.6z"/>
		<path d="M300,119.9c1.6,1.6,2.4,1.8,3.4,0.8c0.9-0.9,0.9-1.2,0-1.2c-0.7,0-2.2-0.3-3.4-0.8C298.1,117.9,298.1,118,300,119.9z"/>
		<path d="M389.4,159.8c-0.3,0.6,0.1,1.7,0.9,2.4c1.2,1.1,1.6,1,1.4-0.3C391.3,159.5,390.2,158.6,389.4,159.8z"/>
		<path d="M396.1,316.6c1,1,9.4,3,8.3,2c-0.3-0.3-2.6-1.1-5-1.8C397,316.2,395.6,316.1,396.1,316.6z"/>
		<path d="M453.4,325.2c-2.1,1.9-2.5,2.5-0.9,1.8c2.3-1.1,5.9-4.7,4.7-4.7C456.9,322.3,455.2,323.7,453.4,325.2z"/>
		<path d="M407.8,351c-0.8,1-1.1,2-0.8,2.4c0.3,0.3,1.1-0.5,1.9-1.7C410.4,348.9,409.9,348.7,407.8,351z"/>
		<path d="M404.8,356.7c-0.3,1-0.3,2-0.1,2.4c0.3,0.3,0.9-0.5,1.2-1.8C406.6,354.6,405.8,354.2,404.8,356.7z"/>
		<path d="M395.1,416.2c-1.1,1.4-3.2,4.7-4.5,7.6c-2.1,4.4-2.5,6.9-2.4,19.7c0.1,8.3,0.7,16,1.5,17.9c1.2,2.9,3.5,15.8,3.8,22
			c0.1,1.5,0.9,2.9,1.8,3.3c1.2,0.5,1.4-0.8,0.6-6.6c-1.6-12.2-0.9-30.8,1.8-48.3c1.2-8.6,1.4-16.6,0.3-17.2
			C397.5,414,396.1,414.8,395.1,416.2z"/>
		<path d="M108.3,418.8c-2,1.6-4.4,4.7-5.4,7c-3.5,8.3-10.1,37.4-8.4,37.4c0.4,0,1.9-3.7,3.4-8.2c3.2-9.7,7.8-21.9,9.5-25
			c0.7-1.2,1.9-3.7,2.8-5.4c1.9-3.8,4.6-5.1,5.9-2.9c0.6,0.8,1.4,1.2,1.7,0.8c1-1-2.7-6.5-4.4-6.5
			C112.6,415.8,110.3,417.2,108.3,418.8z"/>
		<path d="M277.7,420c-2.1,1.1-2.8,2-1.9,2.4c1.8,0.6,7-1.9,7-3.4C282.8,417.6,281.5,418,277.7,420z"/>
		<path d="M248.5,438.6c-1,1.4-1.6,2.7-1.4,2.9c1,0.9,5.2-2.1,5.2-3.7C252.3,435.3,250.4,435.8,248.5,438.6z"/>
		<path d="M441.1,501c-2.8,3.6-3.2,3.8-5,2.3c-3.3-3-4.8-2.3-4.1,2c0.7,3.3,0.5,3.8-1.9,4.4c-1.7,0.5-3,0.1-3.8-0.9
			c-1.5-2-3.8-2.3-3.8-0.5c0,2.5,3.7,4.2,8.1,3.5c5.1-0.7,5.5,0.9,1.5,5c-3.3,3.3-3.5,5.2-1.1,7.2c1.5,1.1,2.1,1,3.9-0.6
			c1.2-1.1,2.5-1.8,2.8-1.5c1,1-0.7,4.3-2.1,4.3c-0.8,0-2.7,1.5-4.4,3.2c-4.7,5-4.2,10.7,1.6,16.9c4.3,4.5,4.7,4.7,6.1,2.8
			c1.5-1.9,1.7-1.9,4.7,0.9c7.2,6.6,10.1,5,10.9-6.8c0.8-11-0.7-16.5-5.3-19.3c-2-1.2-3-2.3-2.5-2.3c1.7,0,5.3-6.5,4.4-8
			c-0.5-0.8-2.4-1-4.5-0.7c-5.6,0.9-4.6-0.7,1.8-3c6.2-2.3,7.4-4.8,2.6-5.4c-2.3-0.2-3-0.9-2.8-2.4c0.3-1.7-2-5.3-3.5-5.3
			C444.4,497,442.8,498.8,441.1,501z M450,530.5c1,4.7,1.1,16.3,0.2,19.2c-1.1,3.4-2.5,3.3-5.7-0.6c-3.2-3.5-3.6-7-1-7
			c0.9,0,2.6-0.8,3.5-1.8c1.6-1.5,1.6-1.9,0.2-2.8c-0.9-0.6-2.3-1-3.2-1c-1.2,0-1.1-0.6,0.6-2.4c1.7-1.9,1.8-2.6,0.7-4.5
			c-0.8-1.2-1.1-2.7-0.8-3.3C445.7,524.4,449.3,527.2,450,530.5z M439.4,527.4c0,0.6-0.3,1.1-0.8,1.1c-2.4,0.1-6,4.4-5.2,6.3
			c0.7,1.7,0.8,1.7,1.6-0.5c1.5-3.9,2.7-2.8,2.8,2.6c0.1,2.7-0.2,4.8-0.7,4.5c-0.5-0.2-0.6,0.9-0.2,2.6c0.6,2.8,0.5,2.9-1.6,1.4
			c-7.3-5.5-7.9-10-1.8-15.3C437.9,526.2,439.4,525.5,439.4,527.4z"/>
		<path d="M415.4,522.6c-0.5,0.3-0.8,4.6-0.8,9.4c0,6.3,0.5,9.1,1.7,10.1c3.3,2.7,4.3,0.1,3.5-8.7
			C418.8,522.6,417.8,520.1,415.4,522.6z"/>
		<path d="M91.2,525.2c0,0.6-0.6,1.1-1.4,1.1c-0.7,0-3,1.8-5.3,3.9c-8.5,8.2-15,14.1-15.8,14.1c-0.3,0-1.7,1.8-2.9,4.1
			c-1.2,2.2-3.2,4.4-4.4,4.8c-1.1,0.5-3.2,2.6-4.5,4.8c-1.3,2.1-4.3,6.9-6.5,10.4c-2.5,3.6-4.3,7.8-4.3,9.6c0,1.8-0.5,3.5-1.1,3.7
			c-0.6,0.1-1.7,3.3-2.4,6.9c-1,5-1,7.6,0,11c1.4,4.3,3.5,5.1,3.5,1.2c0-1.1,1-2.7,2.3-3.6c1.2-0.9,2.2-2,2.2-2.6
			c0-1.7,3.2-4.2,5.4-4.2c3.8,0,6.3-1.2,4.6-2.4c-0.8-0.5-2.4-0.3-3.5,0.2c-1.7,0.9-2,0.7-2-1.7c0-1.6,0.5-3,1-3.4
			c0.6-0.3,1.4-2.4,1.7-4.5c0.5-2.1,1.7-5.1,2.9-6.5c1.1-1.6,2.5-4.3,2.9-6.1c0.4-1.8,1.1-3.5,1.5-3.8c0.3-0.3,1.6-2.5,2.6-4.8
			c1.1-2.3,2.5-4.2,3-4.2c0.6,0,2.5-2.6,4.2-5.6c1.7-3.2,3.5-5.6,4.1-5.6c0.5,0,0.9-0.8,0.9-1.7s0.6-1.7,1.1-1.7
			c0.7,0,1.1-0.7,1.1-1.6c0-0.9,0.5-1.8,0.9-2c1.9-0.8,10.6-11,9.4-11C91.7,524,91.2,524.5,91.2,525.2z"/>
		<path d="M375.7,527.4c-0.9,1.5,2.3,2.7,4.6,1.8c1.4-0.6,1.7,0.2,1.4,4.2c-0.2,3.9-0.8,4.8-2.8,5.1c-2.3,0.3-2.4,0.7-1.4,2.7
			c0.9,1.6,0.9,2.6,0,3.5c-3.6,3.6,1.6,9.5,7.1,8c3.7-0.9,3.5-4.1-0.1-5c-2.4-0.6-2.5-0.8-1-3.5c1.9-3.7,3.3-12.7,2.4-15.7
			c-0.6-1.7-1.7-2.2-5.1-2.2C378.4,526.3,376.1,526.8,375.7,527.4z"/>
		<path d="M381.7,560.8c-0.6,0.5-0.9,1.9-0.9,3.3c0,2.5-1.9,5.1-3.7,5.1c-0.6,0-0.8-1.7-0.3-3.7l0.7-3.6l-2.5,3.8
			c-1.4,2.1-2.5,4.7-2.6,5.7c-0.2,2.4,3.7,2.1,5.6-0.3c0.8-1,2-1.9,2.8-1.9c1,0,0.9,0.6-0.5,2.1c-1.6,1.8-1.7,2.1-0.2,2.7
			c2.1,0.8,2.9-0.1,2.9-3.4c0-1.6,0.7-2.6,1.7-2.6c2,0,2.2,1.8,0.5,2.9c-0.9,0.6-0.7,1.1,0.6,1.8s2.6,0.5,4.2-0.6
			c1.9-1.4,1.9-1.7,0.5-2.3c-2.1-0.9-2.3-4.1,0-4.8c2.4-1,2.1-2.7-0.5-2.7c-1.1,0-2.4,0.8-2.8,1.7c-1,2.8-3.8,1.9-4.3-1.2
			C382.6,561.2,382.2,560.3,381.7,560.8z"/>
		<path d="M447.3,565.7c-1.4,0.8-1.4,1.5-0.2,3.6c0.9,1.7,1.4,6.3,1.1,13.3c-0.5,12.7-2.5,13.6-2.5,1.1c0-7.9-0.9-10.8-3.2-9.5
			c-1.4,0.9-1.1,5.9,0.5,8.2c1,1.7,1,2.6-0.2,3.9c-2.3,2.8-2.8,1.2-2.8-8.7c0-5.1-0.5-9.5-1.1-9.8c-0.6-0.3-1.2,0.5-1.6,1.7
			c-0.6,3.2-2.3,3.9-7.1,3.2c-3.4-0.5-4.3-0.2-4.3,1.1c0,0.9-0.7,2-1.4,2.4c-1,0.3-0.9,0.9,0.6,1.8c1.9,1.2,1.8,1.5-0.3,4.5
			c-2.8,4.1-2.8,4.3,0.7,7.4c3.8,3.6,5,3.4,5-1c0-3.3,3.2-11,5.6-13.5c0.5-0.6,0.8,2.7,0.7,7.3c-0.1,7.5,0.1,8.2,2.1,8.2
			c3.5,0,7.1,2.6,7.5,5.3c0.2,1.3,0.9,2.6,1.7,2.8c0.8,0.3,1.5-1.8,1.9-6.1c0.5-3.6,1.1-9.6,1.6-13.3c0.9-7.6,0.2-14.3-1.5-14.9
			C449.5,564.8,448.2,565.1,447.3,565.7z"/>
		<path d="M418,570.7c0,1,0.8,1.8,1.8,1.8s1.6-0.6,1.4-1.4C420.5,569.1,418,568.8,418,570.7z"/>
		<path d="M387.2,577c-4.5,0.8-6.9,2.3-3.8,2.3c1,0,2.4,1,3,2.1c1.5,2.9-1.6,3.7-5.9,1.6c-2.6-1.2-3-1.2-2.5,0.1
			c0.8,2,5.3,3.2,8.9,2.2c3.3-0.8,3.5-1.8,1.1-3.8c-0.9-0.8-1.7-1.8-1.7-2.4c0-0.6,0.8-1,1.7-1s1.7,0.5,1.7,1.1
			c0,1.9,1.6,1.2,3.2-1.1C394.5,575.6,394.4,575.5,387.2,577z"/>
		<path d="M414.5,582.1c-0.3,0.6-0.5,1.8-0.3,2.5c0.1,0.8,0.2,2.8,0.3,4.5c0.2,3.6,1.9,6.9,3,5.6c0.5-0.3,0.2-1.3-0.5-2.1
			c-0.7-0.9-1.3-3.8-1.6-6.5C415.3,583.2,414.8,581.4,414.5,582.1z"/>
		<path d="M384.7,593.7c-0.7,0.5-1.2,3.2-1.5,6.2c-0.3,4.8,0,5.4,2.6,6.4c3.2,1.2,3.4,3.4,1.8,17.8c-0.8,6.8-1.6,8.9-4.2,11.6
			c-3.6,3.7-3.2,5,1.7,3.8c5.5-1.1,6-2.6,5.9-17.9c-0.1-11.4,0.1-14.3,1.6-15.8c1-1,2.2-1.8,2.8-1.8c0.5,0,1.2-0.8,1.6-1.8
			c0.6-1.5,0.1-1.7-2.1-1.1c-2.7,0.7-2.8,0.5-2.8-3.8c0-4.2-0.2-4.5-3-4.5C387.2,592.8,385.3,593.2,384.7,593.7z"/>
		<path d="M374.4,597.8c-1.6,0.8-2.1,1.7-1.5,2.4c0.7,0.7,0.5,2.3-0.6,4.3c-1.9,3.7-1.2,5.5,1.8,4.6c1.5-0.5,2.1-0.2,2.1,1
			c0,1-0.8,1.8-1.9,1.8c-1.6,0-1.6,0.2,0.2,2.3c2.3,2.5,3.9,2.9,3.9,0.9c0-0.7,0.8-2.1,1.7-3.3c1.2-1.2,1.6-2.9,1-4.8
			c-0.7-2.9-3-3.9-4.4-1.8c-0.9,1.5-2.8,1.5-2.8,0.1c0-0.7,1.2-2.5,2.8-4.2c1.6-1.7,2.8-3.2,2.8-3.3
			C379.7,596.7,376.4,596.7,374.4,597.8z"/>
		<path d="M18.1,617.5c-2.8,1.7-8.9,13.9-9.8,19.4C8,639,7.2,642.1,6.8,644c-0.6,1.8-1.5,5.4-1.9,7.9c-0.5,2.5-0.9,4.7-1,5.1
			c-0.3,0.9-1.6,8.1-2.4,13c-0.3,2.5-0.9,8.6-1.1,13.5l-0.3,9l1.7-5.6c1-3.2,3.1-10.7,4.5-16.9c5-20.1,6.3-24.8,7.9-27.8
			c0.9-1.6,1.6-4.3,1.6-5.8c0-1.6,0.6-3.3,1.1-3.6c0.7-0.3,1.1-2.1,1.1-4.1c0-4.2,3.5-7.8,6.7-7c2.9,0.8,3-0.9,0.3-3.4
			C22.6,616.2,20.4,616,18.1,617.5z"/>
		<path d="M432.4,617.8c-4.5,1.6-3.9,3.5,0.8,2.9c5.2-0.6,5.6,1.7,1.5,7.8c-2.4,3.5-2.9,5.4-2.3,6.8c1.8,3.7,0.9,15.8-1.4,18.3
			c-3,3.3-1.3,4.3,3.3,2c2.3-1,4.7-1.9,5.6-1.9c2.5,0,2-2.6-0.7-4.3c-1.9-1.2-2.3-2.3-1.7-5.2c0.4-2.1,0.2-5.2-0.5-6.9
			c-1.6-4.3-0.6-4.8,3.5-1.8c2.6,1.9,4.4,2.5,7,1.9c5.6-1.1,8.9-5.2,4.3-5.2c-3.9,0-6.7-5-6-10.7l0.6-5.1l-5.5,0.1
			C437.9,616.6,434.1,617.1,432.4,617.8z M446.2,633.3c0,0.6-0.2,1.1-0.5,1.1c-0.3,0-0.9-0.6-1.2-1.1c-0.3-0.7-0.1-1.1,0.5-1.1
			C445.6,632.2,446.2,632.7,446.2,633.3z"/>
		<path d="M419.2,630.9c-1.4,3.3-0.6,10.1,1,8.5c1.4-1.5,2.5-11.6,1.4-11.6C421,627.7,419.9,629.2,419.2,630.9z"/>
		<path d="M380.3,654.2c0.5,0.9,1.4,1.7,2.1,1.7c2.3,0,2.5,2,1.4,8.2c-0.8,3.8-0.8,5.8,0.1,6.7c2.1,2.1,2.7,0.3,3-9.1l0.3-9.1h-3.8
			C380.6,652.5,379.9,653,380.3,654.2z"/>
		<path d="M391.8,657.5c-0.6,4.7,0,6.3,2,6.3c1.2,0,1.2-0.6,0.2-2.8c-0.9-2-0.9-3.2,0-4.3c0.8-0.9,1-1.9,0.6-2.2
			C393.2,652.8,392.3,653.7,391.8,657.5z"/>
		<path d="M369.2,656.8c-2.4,2.6-2.5,4.7-0.3,4.7c0.9,0,2.1-1.6,2.8-3.4C372.9,654.3,371.9,653.7,369.2,656.8z"/>
		<path d="M428.5,668.1c-1.5,0.2-2.6,1-2.6,1.9c0,1.7,6.5,2.9,7.6,1.3C434.4,669.8,431.2,667.6,428.5,668.1z"/>
		<path d="M420.8,682.6c-3.4,3.6-6.2,6.2-6.4,6c-0.2-0.3-1.1-2.1-1.9-3.9l-1.5-3.4l-1.6,5.1c-1.2,3.8-1.2,5.7-0.3,8.1
			c1.5,3.6,5.3,4.3,6.2,1.1c1.1-3.7,2.2-5.1,4.8-6.1c2.4-0.8,2.5-0.8,1.2,0.9c-1.4,1.5-1,2.3,2.1,5.2c2.5,2.4,3.4,3.9,2.9,5.5
			c-0.6,1.6-0.2,2.1,1.5,2.1c1.1,0,4.2,1.5,6.6,3.3c7.7,5.5,8.6,5.4,15.6-1.1c4.6-4.4,6.2-6.8,6.2-9c0-1.7,0.6-3.5,1.1-3.8
			c1.7-1,1.3-6.5-0.7-10.5c-2.3-4.6-8.2-6.5-15.9-5.2c-6.1,1-6.9,1-11.2,0C427.1,676.2,426,677,420.8,682.6z M451,682.3
			c3,2.4,2.4,8.3-1.7,16.1c-4.1,7.7-5.2,8.2-11.5,5.5c-7.4-3-6.2-6.3,2.4-6.3c5.7,0,7.2-1.8,2.9-3.6l-3.2-1.4l3.2-0.5
			c2.5-0.3,3.2-0.9,2.8-2.8c-0.2-1.8-1.5-2.8-4.5-3.5c-3-0.8-4.3-1.7-4.3-3.2c0-1.7,0.9-2,6-2C446.3,680.7,449.9,681.5,451,682.3z
			 M429.3,686.2c0,2.9-1.1,5.8-2.4,5.8c-1.1,0-1.4-6-0.2-7.1C428,683.4,429.3,684.1,429.3,686.2z"/>
		<path fill="#FF3939" d="M365.6,693.4c-1.3,1.6-1.5,33.1-0.2,35.8c1.2,2.4,32,5.3,35.6,3.3c1.4-0.7,2.4-1.6,2.5-2
			c0-0.5,0.2-6.4,0.5-13.4c0.2-7,0.7-13.2,1.1-13.9c0.3-0.7,0.5-2.7,0-4.5c-1-4.4-4.4-5.3-23.1-6.1
			C371,692.3,366.4,692.5,365.6,693.4z M380.6,697.9c0.3,1.5-0.3,1.9-3,1.9c-1.9,0-3.5-0.6-3.5-1.2c0-0.6,0.6-0.8,1.1-0.5
			c0.7,0.3,1.1-0.1,1.1-1.1C376.3,694.5,380.1,695.3,380.6,697.9z M395.9,696.2c0.3,0.6-1,1.1-3,1.2c-6.1,0.3-6.3,0.4-5.6,1.5
			c0.3,0.7,1.8,0.8,3.3,0.5c2-0.6,2.5-0.3,2,1c-0.5,0.9-0.1,1.7,0.7,1.7c0.7,0,0.9,0.6,0.6,1.1c-0.3,0.7,0.1,1.5,1,1.8
			c1,0.3,1.8,1.7,1.8,2.9c0,1.1,0.6,1.8,1.1,1.5c0.7-0.5,1.1,2.6,1.1,8.3c0,4.8,0.3,9.7,0.7,10.7c0.6,1.6-0.3,1.8-6.2,1.8h-6.9v-4.1
			c0-3.9,0.1-4.1,3.9-3.5c2.1,0.3,3.9,0.1,3.9-0.5c0-0.6,0.7-1,1.5-1c0.9,0,1.6-0.8,1.6-1.7c0-0.9-1-1.7-2.3-1.7
			c-1.9,0-2.1-0.6-1.5-4.4c0.3-2.6,0.2-4.7-0.5-5.2c-0.7-0.5-1.1,1.1-1.1,3.8c0,3.8-0.3,4.4-1.9,3.8c-1.4-0.6-1.6-0.3-0.9,0.9
			c0.7,1.2,0.6,1.4-0.6,0.2c-1.7-1.6-2.4-8.2-0.9-8.2c0.6,0,0.7-0.6,0.2-1.3c-0.6-0.9-0.2-1,1.3-0.5c2,0.8,2,0.7-0.1-1.4
			c-2.3-2.1-2.3-2.1-3.2,1.6c-0.8,2.9-1.6,3.8-3.6,3.8c-1.7,0-2.8-0.8-3.3-2.6c-1.4-5.2-0.9-6.1,3.4-6.2c4.8-0.2,6.8-1.3,2.4-1.3
			c-2.3,0-3-0.6-3-2c0-1.1,0.3-2.5,0.8-2.8C383.7,695,395.2,695.2,395.9,696.2z M369.6,699.2c-1.1,1.4-1.2,1.7-1.2,5.7
			c0,1.6-0.6,2.8-1.2,2.8c-0.9,0-0.9-8.6,0-10.9c0.1-0.1,0.9,0,1.8,0.3C370.1,697.6,370.3,698.3,369.6,699.2z M401.8,701.4
			c0.3,0.9,0.1,2.6-0.6,3.7c-0.7,1.1-1.2,1.5-1.2,0.7c0-0.7-0.7-1.5-1.4-1.8c-0.8-0.2-0.6-0.3,0.6-0.1c1,0.1,1.7-0.2,1.2-0.8
			c-0.3-0.6-1.2-1-2.1-1c-0.9,0-1.9-0.6-2.3-1.1c-0.5-0.7,0.6-1.1,2.3-1.1C399.8,699.8,401.4,700.5,401.8,701.4z M375.2,702.7
			c0,0.9-0.7,1.7-1.6,1.7c-1.1,0-1.4,1-0.7,4.3c0.6,3.2,0.3,4.4-0.7,4.4c-2.1,0-2.8-4.5-1.5-8.6C372,700.8,375.2,699.6,375.2,702.7z
			 M377.1,703.4c-0.3,0.9-0.7,0.6-0.7-0.7c-0.1-1.2,0.2-1.9,0.6-1.5C377.3,701.6,377.4,702.7,377.1,703.4z M378.4,711.1
			c0,1.6-0.3,2.1-0.7,1.4c-0.2-0.7-1.2-1.4-2.1-1.4c-1.9,0-2.1-4.2-0.1-4.8C377.3,705.7,378.5,707.6,378.4,711.1z M368.4,711.8
			c0,0.9-0.5,1.4-1.1,1c-0.6-0.3-1.1-1.1-1.1-1.8c0-0.6,0.6-1,1.1-1C368,710,368.4,710.8,368.4,711.8z M380.5,714.7
			c-0.3,0.9-0.7,0.6-0.7-0.7c-0.1-1.2,0.2-1.9,0.6-1.5C380.7,712.9,380.8,713.9,380.5,714.7z M382.7,714.7c-0.3,0.9-0.7,0.6-0.7-0.7
			c-0.1-1.2,0.2-1.9,0.6-1.5C382.9,712.9,383.1,713.9,382.7,714.7z M378.5,715.6c0,1.4-0.9,1.4-3.9,0c-2-0.9-1.9-1,0.9-1
			C377.2,714.5,378.5,714.9,378.5,715.6z M385,723.2c-0.3,1.1-0.6,0.5-0.6-1.4c0-1.9,0.2-2.7,0.6-2
			C385.2,720.6,385.2,722.1,385,723.2z M388.7,720.1c0,0.6-0.5,1.1-1.1,1.1c-0.6,0-1.1-0.6-1.1-1.1c0-0.7,0.6-1.1,1.1-1.1
			C388.2,719,388.7,719.4,388.7,720.1z M379.2,725.2c-0.5,1.6-1.2,2.8-1.9,2.8c-0.9,0-0.9-0.5,0-1.6c0.7-0.9,1.2-2,1.1-2.5
			c-0.1-0.6,0-1.8,0.1-2.7c0.1-1.2,0.3-1.4,0.8-0.2C379.7,721.8,379.6,723.7,379.2,725.2z M369.6,725c-1.8,1.8-2.8,0.1-1.1-1.8
			c0.9-0.9,1.8-1.2,2-0.6C370.8,723.2,370.3,724.3,369.6,725z M382.3,725.8c-0.3,1.4-0.9,2.1-1.2,1.8c-0.6-0.7,0.6-4.1,1.3-4.1
			C382.6,723.5,382.6,724.5,382.3,725.8z M373.5,726.9c0.3,0.6-0.1,1.1-1.1,1.1c-1,0-1.5-0.6-1.1-1.1c0.3-0.7,0.9-1.1,1.1-1.1
			C372.6,725.8,373.1,726.2,373.5,726.9z"/>
	</g>
</svg>
